<mxfile host="app.diagrams.net" modified="2021-03-21T14:00:32.913Z" agent="5.0 (Windows NT 10.0; Win64; x64) AppleWebKit/537.36 (KHTML, like Gecko) Chrome/89.0.4389.90 Safari/537.36" etag="NjvpFdm6Op8pUf8b1qAv" version="14.4.9" type="github" pages="2">
  <diagram name="Software of Arduino " id="edf60f1a-56cd-e834-aa8a-f176f3a09ee4">
    <mxGraphModel dx="1780" dy="1027" grid="0" gridSize="10" guides="1" tooltips="1" connect="1" arrows="1" fold="1" page="1" pageScale="1" pageWidth="1100" pageHeight="850" background="#ffffff" math="0" shadow="0">
      <root>
        <mxCell id="0" />
        <mxCell id="1" parent="0" />
        <mxCell id="P2Anq4-_ZxcCkx1g6dhS-10" value="Create webserver on port 80" style="rounded=0;whiteSpace=wrap;html=1;shadow=1;labelBackgroundColor=none;strokeWidth=1;fontFamily=Verdana;fontSize=12;align=center;" parent="1" vertex="1">
          <mxGeometry x="191" y="340" width="140" height="47" as="geometry" />
        </mxCell>
        <mxCell id="P2Anq4-_ZxcCkx1g6dhS-14" style="edgeStyle=orthogonalEdgeStyle;rounded=0;html=1;labelBackgroundColor=none;startSize=5;endArrow=classicThin;endFill=1;endSize=5;jettySize=auto;orthogonalLoop=1;strokeWidth=1;fontFamily=Verdana;fontSize=12;" parent="1" source="P2Anq4-_ZxcCkx1g6dhS-15" edge="1">
          <mxGeometry relative="1" as="geometry">
            <mxPoint x="261" y="340" as="targetPoint" />
          </mxGeometry>
        </mxCell>
        <mxCell id="P2Anq4-_ZxcCkx1g6dhS-15" value="Define function readFSR" style="rounded=0;whiteSpace=wrap;html=1;shadow=1;labelBackgroundColor=none;strokeWidth=1;fontFamily=Verdana;fontSize=12;align=center;" parent="1" vertex="1">
          <mxGeometry x="191" y="250" width="140" height="40" as="geometry" />
        </mxCell>
        <mxCell id="P2Anq4-_ZxcCkx1g6dhS-16" style="edgeStyle=orthogonalEdgeStyle;rounded=0;html=1;labelBackgroundColor=none;startSize=5;endArrow=classicThin;endFill=1;endSize=5;jettySize=auto;orthogonalLoop=1;strokeWidth=1;fontFamily=Verdana;fontSize=12;" parent="1" source="P2Anq4-_ZxcCkx1g6dhS-17" edge="1">
          <mxGeometry relative="1" as="geometry">
            <mxPoint x="261" y="250" as="targetPoint" />
          </mxGeometry>
        </mxCell>
        <mxCell id="P2Anq4-_ZxcCkx1g6dhS-17" value="Define variables" style="rounded=0;whiteSpace=wrap;html=1;shadow=1;labelBackgroundColor=none;strokeWidth=1;fontFamily=Verdana;fontSize=12;align=center;" parent="1" vertex="1">
          <mxGeometry x="191" y="160" width="140" height="47" as="geometry" />
        </mxCell>
        <mxCell id="P2Anq4-_ZxcCkx1g6dhS-18" style="edgeStyle=orthogonalEdgeStyle;rounded=0;html=1;labelBackgroundColor=none;startSize=5;endArrow=classicThin;endFill=1;endSize=5;jettySize=auto;orthogonalLoop=1;strokeWidth=1;fontFamily=Verdana;fontSize=12;" parent="1" source="P2Anq4-_ZxcCkx1g6dhS-19" edge="1">
          <mxGeometry relative="1" as="geometry">
            <mxPoint x="261" y="160" as="targetPoint" />
          </mxGeometry>
        </mxCell>
        <mxCell id="P2Anq4-_ZxcCkx1g6dhS-19" value="Import libraries&amp;nbsp;" style="rounded=0;whiteSpace=wrap;html=1;shadow=1;labelBackgroundColor=none;strokeWidth=1;fontFamily=Verdana;fontSize=12;align=center;" parent="1" vertex="1">
          <mxGeometry x="191" y="70" width="140" height="40" as="geometry" />
        </mxCell>
        <mxCell id="P2Anq4-_ZxcCkx1g6dhS-22" style="edgeStyle=orthogonalEdgeStyle;rounded=0;html=1;labelBackgroundColor=none;startSize=5;endArrow=classicThin;endFill=1;endSize=5;jettySize=auto;orthogonalLoop=1;strokeWidth=1;fontFamily=Verdana;fontSize=12;entryX=0.5;entryY=0;entryDx=0;entryDy=0;" parent="1" edge="1" target="P2Anq4-_ZxcCkx1g6dhS-29">
          <mxGeometry relative="1" as="geometry">
            <mxPoint x="466" y="160" as="targetPoint" />
            <mxPoint x="466" y="110" as="sourcePoint" />
          </mxGeometry>
        </mxCell>
        <mxCell id="P2Anq4-_ZxcCkx1g6dhS-23" value="Convert data to movement data" style="rounded=0;whiteSpace=wrap;html=1;shadow=1;labelBackgroundColor=none;strokeWidth=1;fontFamily=Verdana;fontSize=12;align=center;" parent="1" vertex="1">
          <mxGeometry x="191" y="690" width="140" height="40" as="geometry" />
        </mxCell>
        <mxCell id="P2Anq4-_ZxcCkx1g6dhS-24" style="edgeStyle=orthogonalEdgeStyle;rounded=0;html=1;labelBackgroundColor=none;startSize=5;endArrow=classicThin;endFill=1;endSize=5;jettySize=auto;orthogonalLoop=1;strokeWidth=1;fontFamily=Verdana;fontSize=12;" parent="1" source="P2Anq4-_ZxcCkx1g6dhS-25" edge="1">
          <mxGeometry relative="1" as="geometry">
            <mxPoint x="261" y="690" as="targetPoint" />
          </mxGeometry>
        </mxCell>
        <mxCell id="P2Anq4-_ZxcCkx1g6dhS-25" value="&lt;span style=&quot;font-size: 12px;&quot;&gt;Call on IP address to retreive data from ESP32 board&lt;/span&gt;" style="rounded=0;whiteSpace=wrap;html=1;shadow=1;labelBackgroundColor=none;strokeWidth=1;fontFamily=Verdana;fontSize=12;align=center;" parent="1" vertex="1">
          <mxGeometry x="191" y="600" width="140" height="47" as="geometry" />
        </mxCell>
        <mxCell id="P2Anq4-_ZxcCkx1g6dhS-26" style="edgeStyle=orthogonalEdgeStyle;rounded=0;html=1;labelBackgroundColor=none;startSize=5;endArrow=classicThin;endFill=1;endSize=5;jettySize=auto;orthogonalLoop=1;strokeWidth=1;fontFamily=Verdana;fontSize=12;" parent="1" source="P2Anq4-_ZxcCkx1g6dhS-27" edge="1">
          <mxGeometry relative="1" as="geometry">
            <mxPoint x="261" y="520" as="targetPoint" />
          </mxGeometry>
        </mxCell>
        <mxCell id="P2Anq4-_ZxcCkx1g6dhS-27" value="Create SQLite database" style="rounded=0;whiteSpace=wrap;html=1;shadow=1;labelBackgroundColor=none;strokeWidth=1;fontFamily=Verdana;fontSize=12;align=center;" parent="1" vertex="1">
          <mxGeometry x="191" y="430" width="140" height="40" as="geometry" />
        </mxCell>
        <mxCell id="P2Anq4-_ZxcCkx1g6dhS-28" style="edgeStyle=orthogonalEdgeStyle;rounded=0;html=1;labelBackgroundColor=none;startSize=5;endArrow=classicThin;endFill=1;endSize=5;jettySize=auto;orthogonalLoop=1;strokeWidth=1;fontFamily=Verdana;fontSize=12;entryX=0.5;entryY=0;entryDx=0;entryDy=0;exitX=0.5;exitY=1;exitDx=0;exitDy=0;" parent="1" source="P2Anq4-_ZxcCkx1g6dhS-10" target="P2Anq4-_ZxcCkx1g6dhS-27" edge="1">
          <mxGeometry relative="1" as="geometry">
            <mxPoint x="271" y="350" as="targetPoint" />
            <mxPoint x="231" y="410" as="sourcePoint" />
          </mxGeometry>
        </mxCell>
        <mxCell id="P2Anq4-_ZxcCkx1g6dhS-29" value="Plots movement data on live chart on the local servers webpage" style="rounded=0;whiteSpace=wrap;html=1;shadow=1;labelBackgroundColor=none;strokeWidth=1;fontFamily=Verdana;fontSize=12;align=center;" parent="1" vertex="1">
          <mxGeometry x="396" y="150" width="140" height="50" as="geometry" />
        </mxCell>
        <mxCell id="P2Anq4-_ZxcCkx1g6dhS-31" value="Retreive data from database from timestamp and update &#39;Last Alert&#39; section on webpage" style="rounded=0;whiteSpace=wrap;html=1;shadow=1;labelBackgroundColor=none;strokeWidth=1;fontFamily=Verdana;fontSize=12;align=center;" parent="1" vertex="1">
          <mxGeometry x="396" y="580" width="140" height="85" as="geometry" />
        </mxCell>
        <mxCell id="P2Anq4-_ZxcCkx1g6dhS-33" value="Analyse movement data for seizure threshold" style="rounded=0;whiteSpace=wrap;html=1;shadow=1;labelBackgroundColor=none;strokeWidth=1;fontFamily=Verdana;fontSize=12;align=center;" parent="1" vertex="1">
          <mxGeometry x="396" y="340" width="140" height="40" as="geometry" />
        </mxCell>
        <mxCell id="P2Anq4-_ZxcCkx1g6dhS-34" style="edgeStyle=orthogonalEdgeStyle;rounded=0;html=1;labelBackgroundColor=none;startSize=5;endArrow=classicThin;endFill=1;endSize=5;jettySize=auto;orthogonalLoop=1;strokeWidth=1;fontFamily=Verdana;fontSize=12;" parent="1" source="P2Anq4-_ZxcCkx1g6dhS-35" edge="1">
          <mxGeometry relative="1" as="geometry">
            <mxPoint x="465.9999999999999" y="340" as="targetPoint" />
          </mxGeometry>
        </mxCell>
        <mxCell id="P2Anq4-_ZxcCkx1g6dhS-35" value="Retreive data from database to plot historial data on webpage" style="rounded=0;whiteSpace=wrap;html=1;shadow=1;labelBackgroundColor=none;strokeWidth=1;fontFamily=Verdana;fontSize=12;align=center;" parent="1" vertex="1">
          <mxGeometry x="396" y="229" width="140" height="61" as="geometry" />
        </mxCell>
        <mxCell id="P2Anq4-_ZxcCkx1g6dhS-36" style="edgeStyle=orthogonalEdgeStyle;rounded=0;html=1;labelBackgroundColor=none;startSize=5;endArrow=classicThin;endFill=1;endSize=5;jettySize=auto;orthogonalLoop=1;strokeWidth=1;fontFamily=Verdana;fontSize=12;exitX=0.5;exitY=1;exitDx=0;exitDy=0;entryX=0.5;entryY=0;entryDx=0;entryDy=0;" parent="1" source="P2Anq4-_ZxcCkx1g6dhS-29" edge="1" target="P2Anq4-_ZxcCkx1g6dhS-35">
          <mxGeometry relative="1" as="geometry">
            <mxPoint x="465.9999999999999" y="250" as="targetPoint" />
            <mxPoint x="465.9999999999999" y="200" as="sourcePoint" />
          </mxGeometry>
        </mxCell>
        <mxCell id="P2Anq4-_ZxcCkx1g6dhS-37" value="Trigger email alert including hyperling to &#39;last alert&#39; section on webpage" style="rounded=0;whiteSpace=wrap;html=1;shadow=1;labelBackgroundColor=none;strokeWidth=1;fontFamily=Verdana;fontSize=12;align=center;" parent="1" vertex="1">
          <mxGeometry x="396" y="683" width="140" height="60" as="geometry" />
        </mxCell>
        <mxCell id="P2Anq4-_ZxcCkx1g6dhS-38" style="edgeStyle=orthogonalEdgeStyle;rounded=0;html=1;labelBackgroundColor=none;startSize=5;endArrow=classicThin;endFill=1;endSize=5;jettySize=auto;orthogonalLoop=1;strokeWidth=1;fontFamily=Verdana;fontSize=12;exitX=0.5;exitY=1;exitDx=0;exitDy=0;entryX=0.5;entryY=0;entryDx=0;entryDy=0;" parent="1" source="P2Anq4-_ZxcCkx1g6dhS-31" target="P2Anq4-_ZxcCkx1g6dhS-37" edge="1">
          <mxGeometry relative="1" as="geometry">
            <mxPoint x="466" y="697" as="targetPoint" />
            <mxPoint x="465.6599999999999" y="647" as="sourcePoint" />
          </mxGeometry>
        </mxCell>
        <mxCell id="P2Anq4-_ZxcCkx1g6dhS-39" value="Write movement data to database" style="rounded=0;whiteSpace=wrap;html=1;shadow=1;labelBackgroundColor=none;strokeWidth=1;fontFamily=Verdana;fontSize=12;align=center;" parent="1" vertex="1">
          <mxGeometry x="396" y="70" width="140" height="40" as="geometry" />
        </mxCell>
        <mxCell id="P2Anq4-_ZxcCkx1g6dhS-40" style="edgeStyle=orthogonalEdgeStyle;rounded=0;html=1;labelBackgroundColor=none;startSize=5;endArrow=classicThin;endFill=1;endSize=5;jettySize=auto;orthogonalLoop=1;strokeWidth=1;fontFamily=Verdana;fontSize=12;entryX=0.5;entryY=0;entryDx=0;entryDy=0;" parent="1" target="P2Anq4-_ZxcCkx1g6dhS-39" edge="1">
          <mxGeometry relative="1" as="geometry">
            <mxPoint x="261" y="780" as="targetPoint" />
            <mxPoint x="261" y="730" as="sourcePoint" />
            <Array as="points">
              <mxPoint x="261" y="755" />
              <mxPoint x="170" y="755" />
              <mxPoint x="170" y="50" />
              <mxPoint x="466" y="50" />
            </Array>
          </mxGeometry>
        </mxCell>
        <mxCell id="P2Anq4-_ZxcCkx1g6dhS-41" style="edgeStyle=orthogonalEdgeStyle;rounded=0;html=1;labelBackgroundColor=none;startSize=5;endArrow=classicThin;endFill=1;endSize=5;jettySize=auto;orthogonalLoop=1;strokeWidth=1;fontFamily=Verdana;fontSize=12;" parent="1" target="P2Anq4-_ZxcCkx1g6dhS-44" edge="1">
          <mxGeometry relative="1" as="geometry">
            <mxPoint x="466" y="380" as="sourcePoint" />
          </mxGeometry>
        </mxCell>
        <mxCell id="P2Anq4-_ZxcCkx1g6dhS-43" value="Yes" style="edgeStyle=orthogonalEdgeStyle;rounded=0;html=1;labelBackgroundColor=none;startSize=5;endArrow=classicThin;endFill=1;endSize=5;jettySize=auto;orthogonalLoop=1;strokeWidth=1;fontFamily=Verdana;fontSize=12;" parent="1" source="P2Anq4-_ZxcCkx1g6dhS-44" edge="1">
          <mxGeometry x="0.2436" y="-20" relative="1" as="geometry">
            <mxPoint as="offset" />
            <mxPoint x="466" y="510" as="targetPoint" />
          </mxGeometry>
        </mxCell>
        <mxCell id="P2Anq4-_ZxcCkx1g6dhS-44" value="Is threshold &lt;br style=&quot;font-size: 12px;&quot;&gt;reached?" style="rhombus;whiteSpace=wrap;html=1;rounded=0;shadow=1;labelBackgroundColor=none;strokeWidth=1;fontFamily=Verdana;fontSize=12;align=center;" parent="1" vertex="1">
          <mxGeometry x="407" y="400" width="118" height="83" as="geometry" />
        </mxCell>
        <mxCell id="P2Anq4-_ZxcCkx1g6dhS-47" value="Start flask server" style="rounded=0;whiteSpace=wrap;html=1;shadow=1;labelBackgroundColor=none;strokeWidth=1;fontFamily=Verdana;fontSize=12;align=center;" parent="1" vertex="1">
          <mxGeometry x="191" y="520" width="140" height="30" as="geometry" />
        </mxCell>
        <mxCell id="P2Anq4-_ZxcCkx1g6dhS-48" style="edgeStyle=orthogonalEdgeStyle;rounded=0;html=1;labelBackgroundColor=none;startSize=5;endArrow=classicThin;endFill=1;endSize=5;jettySize=auto;orthogonalLoop=1;strokeWidth=1;fontFamily=Verdana;fontSize=12;exitX=0.5;exitY=1;exitDx=0;exitDy=0;entryX=0.5;entryY=0;entryDx=0;entryDy=0;" parent="1" source="P2Anq4-_ZxcCkx1g6dhS-47" edge="1">
          <mxGeometry relative="1" as="geometry">
            <mxPoint x="261" y="600" as="targetPoint" />
            <mxPoint x="260.65999999999985" y="560" as="sourcePoint" />
          </mxGeometry>
        </mxCell>
        <mxCell id="P2Anq4-_ZxcCkx1g6dhS-49" value="Use database to find the start and end timestamp of seizure&amp;nbsp;" style="rounded=0;whiteSpace=wrap;html=1;shadow=1;labelBackgroundColor=none;strokeWidth=1;fontFamily=Verdana;fontSize=12;align=center;" parent="1" vertex="1">
          <mxGeometry x="396" y="510" width="140" height="42" as="geometry" />
        </mxCell>
        <mxCell id="P2Anq4-_ZxcCkx1g6dhS-51" style="edgeStyle=orthogonalEdgeStyle;rounded=0;html=1;labelBackgroundColor=none;startSize=5;endArrow=classicThin;endFill=1;endSize=5;jettySize=auto;orthogonalLoop=1;strokeWidth=1;fontFamily=Verdana;fontSize=12;exitX=0.5;exitY=1;exitDx=0;exitDy=0;entryX=0.5;entryY=0;entryDx=0;entryDy=0;" parent="1" source="P2Anq4-_ZxcCkx1g6dhS-49" edge="1" target="P2Anq4-_ZxcCkx1g6dhS-31">
          <mxGeometry relative="1" as="geometry">
            <mxPoint x="466" y="590" as="targetPoint" />
            <mxPoint x="465.6599999999999" y="550" as="sourcePoint" />
          </mxGeometry>
        </mxCell>
        <mxCell id="P2Anq4-_ZxcCkx1g6dhS-52" value="No" style="edgeStyle=orthogonalEdgeStyle;rounded=0;html=1;labelBackgroundColor=none;startSize=5;endArrow=classicThin;endFill=1;endSize=5;jettySize=auto;orthogonalLoop=1;strokeWidth=1;fontFamily=Verdana;fontSize=12;entryX=1;entryY=0.5;entryDx=0;entryDy=0;exitX=0;exitY=0.5;exitDx=0;exitDy=0;" parent="1" edge="1" source="P2Anq4-_ZxcCkx1g6dhS-44">
          <mxGeometry x="-0.918" y="12" relative="1" as="geometry">
            <mxPoint as="offset" />
            <mxPoint x="416.00000000000045" y="440" as="sourcePoint" />
            <mxPoint x="331" y="620" as="targetPoint" />
            <Array as="points">
              <mxPoint x="407" y="440" />
              <mxPoint x="360" y="440" />
              <mxPoint x="360" y="620" />
            </Array>
          </mxGeometry>
        </mxCell>
        <mxCell id="P2Anq4-_ZxcCkx1g6dhS-53" value="" style="edgeStyle=orthogonalEdgeStyle;rounded=0;html=1;labelBackgroundColor=none;startSize=5;endArrow=classicThin;endFill=1;endSize=5;jettySize=auto;orthogonalLoop=1;strokeWidth=1;fontFamily=Verdana;fontSize=12;entryX=1;entryY=0.5;entryDx=0;entryDy=0;exitX=0.5;exitY=1;exitDx=0;exitDy=0;" parent="1" source="P2Anq4-_ZxcCkx1g6dhS-37" target="P2Anq4-_ZxcCkx1g6dhS-25" edge="1">
          <mxGeometry x="-0.9699" y="10" relative="1" as="geometry">
            <mxPoint as="offset" />
            <mxPoint x="491.00000000000045" y="798" as="sourcePoint" />
            <mxPoint x="406" y="978" as="targetPoint" />
            <Array as="points">
              <mxPoint x="466" y="756" />
              <mxPoint x="360" y="756" />
              <mxPoint x="360" y="620" />
              <mxPoint x="331" y="620" />
            </Array>
          </mxGeometry>
        </mxCell>
      </root>
    </mxGraphModel>
  </diagram>
  <diagram id="b_R6OqobCuVC6M6I3i91" name="Software of the Systme">
    <mxGraphModel dx="493" dy="1809" grid="1" gridSize="10" guides="1" tooltips="1" connect="1" arrows="1" fold="1" page="1" pageScale="1" pageWidth="850" pageHeight="1100" math="0" shadow="0">
      <root>
        <mxCell id="ythwBBCzMX73mBJ7t9Jo-0" />
        <mxCell id="ythwBBCzMX73mBJ7t9Jo-1" parent="ythwBBCzMX73mBJ7t9Jo-0" />
        <mxCell id="ythwBBCzMX73mBJ7t9Jo-2" value="Send data via Wi-Fi to board servers IP address" style="rounded=0;whiteSpace=wrap;html=1;shadow=1;labelBackgroundColor=none;strokeWidth=1;fontFamily=Verdana;fontSize=8;align=center;" vertex="1" parent="ythwBBCzMX73mBJ7t9Jo-1">
          <mxGeometry x="190" y="289" width="140" height="40" as="geometry" />
        </mxCell>
        <mxCell id="ythwBBCzMX73mBJ7t9Jo-3" style="edgeStyle=orthogonalEdgeStyle;rounded=0;html=1;labelBackgroundColor=none;startSize=5;endArrow=classicThin;endFill=1;endSize=5;jettySize=auto;orthogonalLoop=1;strokeWidth=1;fontFamily=Verdana;fontSize=8" edge="1" parent="ythwBBCzMX73mBJ7t9Jo-1" source="ythwBBCzMX73mBJ7t9Jo-4">
          <mxGeometry relative="1" as="geometry">
            <mxPoint x="260" y="289" as="targetPoint" />
          </mxGeometry>
        </mxCell>
        <mxCell id="ythwBBCzMX73mBJ7t9Jo-4" value="Send data to ESP32 via wires" style="rounded=0;whiteSpace=wrap;html=1;shadow=1;labelBackgroundColor=none;strokeWidth=1;fontFamily=Verdana;fontSize=8;align=center;" vertex="1" parent="ythwBBCzMX73mBJ7t9Jo-1">
          <mxGeometry x="190" y="199" width="140" height="40" as="geometry" />
        </mxCell>
        <mxCell id="ythwBBCzMX73mBJ7t9Jo-5" style="edgeStyle=orthogonalEdgeStyle;rounded=0;html=1;labelBackgroundColor=none;startSize=5;endArrow=classicThin;endFill=1;endSize=5;jettySize=auto;orthogonalLoop=1;strokeWidth=1;fontFamily=Verdana;fontSize=8" edge="1" parent="ythwBBCzMX73mBJ7t9Jo-1" source="ythwBBCzMX73mBJ7t9Jo-6">
          <mxGeometry relative="1" as="geometry">
            <mxPoint x="260" y="199" as="targetPoint" />
          </mxGeometry>
        </mxCell>
        <mxCell id="ythwBBCzMX73mBJ7t9Jo-6" value="Read data values collected from FSR pressure sensor" style="rounded=0;whiteSpace=wrap;html=1;shadow=1;labelBackgroundColor=none;strokeWidth=1;fontFamily=Verdana;fontSize=8;align=center;" vertex="1" parent="ythwBBCzMX73mBJ7t9Jo-1">
          <mxGeometry x="190" y="109" width="140" height="40" as="geometry" />
        </mxCell>
        <mxCell id="ythwBBCzMX73mBJ7t9Jo-7" style="edgeStyle=orthogonalEdgeStyle;rounded=0;html=1;labelBackgroundColor=none;startSize=5;endArrow=classicThin;endFill=1;endSize=5;jettySize=auto;orthogonalLoop=1;strokeWidth=1;fontFamily=Verdana;fontSize=8" edge="1" parent="ythwBBCzMX73mBJ7t9Jo-1" source="ythwBBCzMX73mBJ7t9Jo-8">
          <mxGeometry relative="1" as="geometry">
            <mxPoint x="260" y="109" as="targetPoint" />
          </mxGeometry>
        </mxCell>
        <mxCell id="ythwBBCzMX73mBJ7t9Jo-8" value="Connect ESP32 board to Wi-fi" style="rounded=0;whiteSpace=wrap;html=1;shadow=1;labelBackgroundColor=none;strokeWidth=1;fontFamily=Verdana;fontSize=8;align=center;" vertex="1" parent="ythwBBCzMX73mBJ7t9Jo-1">
          <mxGeometry x="190" y="19" width="140" height="40" as="geometry" />
        </mxCell>
        <mxCell id="ythwBBCzMX73mBJ7t9Jo-9" style="edgeStyle=orthogonalEdgeStyle;rounded=0;html=1;labelBackgroundColor=none;startSize=5;endArrow=classicThin;endFill=1;endSize=5;jettySize=auto;orthogonalLoop=1;strokeWidth=1;fontFamily=Verdana;fontSize=8" edge="1" parent="ythwBBCzMX73mBJ7t9Jo-1">
          <mxGeometry relative="1" as="geometry">
            <mxPoint x="456" y="19" as="targetPoint" />
            <mxPoint x="456" y="-31" as="sourcePoint" />
          </mxGeometry>
        </mxCell>
        <mxCell id="ythwBBCzMX73mBJ7t9Jo-10" value="Convert data to movement data" style="rounded=0;whiteSpace=wrap;html=1;shadow=1;labelBackgroundColor=none;strokeWidth=1;fontFamily=Verdana;fontSize=8;align=center;" vertex="1" parent="ythwBBCzMX73mBJ7t9Jo-1">
          <mxGeometry x="190" y="639" width="140" height="40" as="geometry" />
        </mxCell>
        <mxCell id="ythwBBCzMX73mBJ7t9Jo-11" style="edgeStyle=orthogonalEdgeStyle;rounded=0;html=1;labelBackgroundColor=none;startSize=5;endArrow=classicThin;endFill=1;endSize=5;jettySize=auto;orthogonalLoop=1;strokeWidth=1;fontFamily=Verdana;fontSize=8" edge="1" parent="ythwBBCzMX73mBJ7t9Jo-1" source="ythwBBCzMX73mBJ7t9Jo-12">
          <mxGeometry relative="1" as="geometry">
            <mxPoint x="260" y="639" as="targetPoint" />
          </mxGeometry>
        </mxCell>
        <mxCell id="ythwBBCzMX73mBJ7t9Jo-12" value="&lt;span&gt;Call on IP address to retreive data from ESP32 board&lt;/span&gt;" style="rounded=0;whiteSpace=wrap;html=1;shadow=1;labelBackgroundColor=none;strokeWidth=1;fontFamily=Verdana;fontSize=8;align=center;" vertex="1" parent="ythwBBCzMX73mBJ7t9Jo-1">
          <mxGeometry x="190" y="549" width="140" height="40" as="geometry" />
        </mxCell>
        <mxCell id="ythwBBCzMX73mBJ7t9Jo-13" style="edgeStyle=orthogonalEdgeStyle;rounded=0;html=1;labelBackgroundColor=none;startSize=5;endArrow=classicThin;endFill=1;endSize=5;jettySize=auto;orthogonalLoop=1;strokeWidth=1;fontFamily=Verdana;fontSize=8" edge="1" parent="ythwBBCzMX73mBJ7t9Jo-1" source="ythwBBCzMX73mBJ7t9Jo-14">
          <mxGeometry relative="1" as="geometry">
            <mxPoint x="260" y="469" as="targetPoint" />
          </mxGeometry>
        </mxCell>
        <mxCell id="ythwBBCzMX73mBJ7t9Jo-14" value="Create SQLite database" style="rounded=0;whiteSpace=wrap;html=1;shadow=1;labelBackgroundColor=none;strokeWidth=1;fontFamily=Verdana;fontSize=8;align=center;" vertex="1" parent="ythwBBCzMX73mBJ7t9Jo-1">
          <mxGeometry x="190" y="379" width="140" height="40" as="geometry" />
        </mxCell>
        <mxCell id="ythwBBCzMX73mBJ7t9Jo-15" style="edgeStyle=orthogonalEdgeStyle;rounded=0;html=1;labelBackgroundColor=none;startSize=5;endArrow=classicThin;endFill=1;endSize=5;jettySize=auto;orthogonalLoop=1;strokeWidth=1;fontFamily=Verdana;fontSize=8;entryX=0.5;entryY=0;entryDx=0;entryDy=0;exitX=0.5;exitY=1;exitDx=0;exitDy=0;" edge="1" parent="ythwBBCzMX73mBJ7t9Jo-1" source="ythwBBCzMX73mBJ7t9Jo-2" target="ythwBBCzMX73mBJ7t9Jo-14">
          <mxGeometry relative="1" as="geometry">
            <mxPoint x="270" y="299" as="targetPoint" />
            <mxPoint x="230" y="359" as="sourcePoint" />
          </mxGeometry>
        </mxCell>
        <mxCell id="ythwBBCzMX73mBJ7t9Jo-16" value="Plots movement data on live chart on the local servers webpage" style="rounded=0;whiteSpace=wrap;html=1;shadow=1;labelBackgroundColor=none;strokeWidth=1;fontFamily=Verdana;fontSize=8;align=center;" vertex="1" parent="ythwBBCzMX73mBJ7t9Jo-1">
          <mxGeometry x="386" y="19" width="140" height="40" as="geometry" />
        </mxCell>
        <mxCell id="ythwBBCzMX73mBJ7t9Jo-17" value="Retreive data from database from timestamp and update &#39;Last Alert&#39; section on webpage" style="rounded=0;whiteSpace=wrap;html=1;shadow=1;labelBackgroundColor=none;strokeWidth=1;fontFamily=Verdana;fontSize=8;align=center;" vertex="1" parent="ythwBBCzMX73mBJ7t9Jo-1">
          <mxGeometry x="386" y="449" width="140" height="37" as="geometry" />
        </mxCell>
        <mxCell id="ythwBBCzMX73mBJ7t9Jo-18" value="Analyse movement data for seizure threshold" style="rounded=0;whiteSpace=wrap;html=1;shadow=1;labelBackgroundColor=none;strokeWidth=1;fontFamily=Verdana;fontSize=8;align=center;" vertex="1" parent="ythwBBCzMX73mBJ7t9Jo-1">
          <mxGeometry x="386" y="199" width="140" height="40" as="geometry" />
        </mxCell>
        <mxCell id="ythwBBCzMX73mBJ7t9Jo-19" style="edgeStyle=orthogonalEdgeStyle;rounded=0;html=1;labelBackgroundColor=none;startSize=5;endArrow=classicThin;endFill=1;endSize=5;jettySize=auto;orthogonalLoop=1;strokeWidth=1;fontFamily=Verdana;fontSize=8" edge="1" parent="ythwBBCzMX73mBJ7t9Jo-1" source="ythwBBCzMX73mBJ7t9Jo-20">
          <mxGeometry relative="1" as="geometry">
            <mxPoint x="456" y="199" as="targetPoint" />
          </mxGeometry>
        </mxCell>
        <mxCell id="ythwBBCzMX73mBJ7t9Jo-20" value="Retreive data from database to plot historial data on webpage" style="rounded=0;whiteSpace=wrap;html=1;shadow=1;labelBackgroundColor=none;strokeWidth=1;fontFamily=Verdana;fontSize=8;align=center;" vertex="1" parent="ythwBBCzMX73mBJ7t9Jo-1">
          <mxGeometry x="386" y="109" width="140" height="40" as="geometry" />
        </mxCell>
        <mxCell id="ythwBBCzMX73mBJ7t9Jo-21" style="edgeStyle=orthogonalEdgeStyle;rounded=0;html=1;labelBackgroundColor=none;startSize=5;endArrow=classicThin;endFill=1;endSize=5;jettySize=auto;orthogonalLoop=1;strokeWidth=1;fontFamily=Verdana;fontSize=8;exitX=0.5;exitY=1;exitDx=0;exitDy=0;" edge="1" parent="ythwBBCzMX73mBJ7t9Jo-1" source="ythwBBCzMX73mBJ7t9Jo-16">
          <mxGeometry relative="1" as="geometry">
            <mxPoint x="456" y="109" as="targetPoint" />
            <mxPoint x="455.9999999999999" y="59" as="sourcePoint" />
          </mxGeometry>
        </mxCell>
        <mxCell id="ythwBBCzMX73mBJ7t9Jo-22" value="Trigger email alert including hyperling to &#39;last alert&#39; section on webpage" style="rounded=0;whiteSpace=wrap;html=1;shadow=1;labelBackgroundColor=none;strokeWidth=1;fontFamily=Verdana;fontSize=8;align=center;" vertex="1" parent="ythwBBCzMX73mBJ7t9Jo-1">
          <mxGeometry x="386" y="529" width="140" height="40" as="geometry" />
        </mxCell>
        <mxCell id="ythwBBCzMX73mBJ7t9Jo-23" style="edgeStyle=orthogonalEdgeStyle;rounded=0;html=1;labelBackgroundColor=none;startSize=5;endArrow=classicThin;endFill=1;endSize=5;jettySize=auto;orthogonalLoop=1;strokeWidth=1;fontFamily=Verdana;fontSize=8;exitX=0.5;exitY=1;exitDx=0;exitDy=0;entryX=0.5;entryY=0;entryDx=0;entryDy=0;" edge="1" parent="ythwBBCzMX73mBJ7t9Jo-1" source="ythwBBCzMX73mBJ7t9Jo-17" target="ythwBBCzMX73mBJ7t9Jo-22">
          <mxGeometry relative="1" as="geometry">
            <mxPoint x="456" y="539" as="targetPoint" />
            <mxPoint x="455.6599999999999" y="489" as="sourcePoint" />
          </mxGeometry>
        </mxCell>
        <mxCell id="ythwBBCzMX73mBJ7t9Jo-24" value="Write movement data to database" style="rounded=0;whiteSpace=wrap;html=1;shadow=1;labelBackgroundColor=none;strokeWidth=1;fontFamily=Verdana;fontSize=8;align=center;" vertex="1" parent="ythwBBCzMX73mBJ7t9Jo-1">
          <mxGeometry x="386" y="-71" width="140" height="40" as="geometry" />
        </mxCell>
        <mxCell id="ythwBBCzMX73mBJ7t9Jo-25" style="edgeStyle=orthogonalEdgeStyle;rounded=0;html=1;labelBackgroundColor=none;startSize=5;endArrow=classicThin;endFill=1;endSize=5;jettySize=auto;orthogonalLoop=1;strokeWidth=1;fontFamily=Verdana;fontSize=8;entryX=0.5;entryY=0;entryDx=0;entryDy=0;" edge="1" parent="ythwBBCzMX73mBJ7t9Jo-1" target="ythwBBCzMX73mBJ7t9Jo-24">
          <mxGeometry relative="1" as="geometry">
            <mxPoint x="260" y="729" as="targetPoint" />
            <mxPoint x="260" y="679" as="sourcePoint" />
            <Array as="points">
              <mxPoint x="260" y="692" />
              <mxPoint x="544" y="692" />
              <mxPoint x="544" y="-87" />
              <mxPoint x="456" y="-87" />
            </Array>
          </mxGeometry>
        </mxCell>
        <mxCell id="ythwBBCzMX73mBJ7t9Jo-26" style="edgeStyle=orthogonalEdgeStyle;rounded=0;html=1;labelBackgroundColor=none;startSize=5;endArrow=classicThin;endFill=1;endSize=5;jettySize=auto;orthogonalLoop=1;strokeWidth=1;fontFamily=Verdana;fontSize=8" edge="1" parent="ythwBBCzMX73mBJ7t9Jo-1" target="ythwBBCzMX73mBJ7t9Jo-28">
          <mxGeometry relative="1" as="geometry">
            <mxPoint x="456" y="239" as="sourcePoint" />
          </mxGeometry>
        </mxCell>
        <mxCell id="ythwBBCzMX73mBJ7t9Jo-27" value="Yes" style="edgeStyle=orthogonalEdgeStyle;rounded=0;html=1;labelBackgroundColor=none;startSize=5;endArrow=classicThin;endFill=1;endSize=5;jettySize=auto;orthogonalLoop=1;strokeWidth=1;fontFamily=Verdana;fontSize=8" edge="1" parent="ythwBBCzMX73mBJ7t9Jo-1" source="ythwBBCzMX73mBJ7t9Jo-28">
          <mxGeometry x="-0.5" y="-10" relative="1" as="geometry">
            <mxPoint as="offset" />
            <mxPoint x="456" y="369" as="targetPoint" />
          </mxGeometry>
        </mxCell>
        <mxCell id="ythwBBCzMX73mBJ7t9Jo-28" value="Is threshold &lt;br&gt;reached?" style="rhombus;whiteSpace=wrap;html=1;rounded=0;shadow=1;labelBackgroundColor=none;strokeWidth=1;fontFamily=Verdana;fontSize=8;align=center;" vertex="1" parent="ythwBBCzMX73mBJ7t9Jo-1">
          <mxGeometry x="406" y="269" width="100" height="60" as="geometry" />
        </mxCell>
        <mxCell id="ythwBBCzMX73mBJ7t9Jo-29" value="Start flask server" style="rounded=0;whiteSpace=wrap;html=1;shadow=1;labelBackgroundColor=none;strokeWidth=1;fontFamily=Verdana;fontSize=8;align=center;" vertex="1" parent="ythwBBCzMX73mBJ7t9Jo-1">
          <mxGeometry x="190" y="469" width="140" height="30" as="geometry" />
        </mxCell>
        <mxCell id="ythwBBCzMX73mBJ7t9Jo-30" style="edgeStyle=orthogonalEdgeStyle;rounded=0;html=1;labelBackgroundColor=none;startSize=5;endArrow=classicThin;endFill=1;endSize=5;jettySize=auto;orthogonalLoop=1;strokeWidth=1;fontFamily=Verdana;fontSize=8;exitX=0.5;exitY=1;exitDx=0;exitDy=0;entryX=0.5;entryY=0;entryDx=0;entryDy=0;" edge="1" parent="ythwBBCzMX73mBJ7t9Jo-1" source="ythwBBCzMX73mBJ7t9Jo-29">
          <mxGeometry relative="1" as="geometry">
            <mxPoint x="260" y="549" as="targetPoint" />
            <mxPoint x="259.65999999999985" y="509" as="sourcePoint" />
          </mxGeometry>
        </mxCell>
        <mxCell id="ythwBBCzMX73mBJ7t9Jo-31" value="Use database to find the start and end timestamp of seizure&amp;nbsp;" style="rounded=0;whiteSpace=wrap;html=1;shadow=1;labelBackgroundColor=none;strokeWidth=1;fontFamily=Verdana;fontSize=8;align=center;" vertex="1" parent="ythwBBCzMX73mBJ7t9Jo-1">
          <mxGeometry x="386" y="369" width="140" height="30" as="geometry" />
        </mxCell>
        <mxCell id="ythwBBCzMX73mBJ7t9Jo-32" style="edgeStyle=orthogonalEdgeStyle;rounded=0;html=1;labelBackgroundColor=none;startSize=5;endArrow=classicThin;endFill=1;endSize=5;jettySize=auto;orthogonalLoop=1;strokeWidth=1;fontFamily=Verdana;fontSize=8;exitX=0.5;exitY=1;exitDx=0;exitDy=0;entryX=0.5;entryY=0;entryDx=0;entryDy=0;" edge="1" parent="ythwBBCzMX73mBJ7t9Jo-1" source="ythwBBCzMX73mBJ7t9Jo-31">
          <mxGeometry relative="1" as="geometry">
            <mxPoint x="456" y="449" as="targetPoint" />
            <mxPoint x="455.6599999999999" y="409" as="sourcePoint" />
          </mxGeometry>
        </mxCell>
        <mxCell id="ythwBBCzMX73mBJ7t9Jo-33" value="No" style="edgeStyle=orthogonalEdgeStyle;rounded=0;html=1;labelBackgroundColor=none;startSize=5;endArrow=classicThin;endFill=1;endSize=5;jettySize=auto;orthogonalLoop=1;strokeWidth=1;fontFamily=Verdana;fontSize=8;entryX=1;entryY=0.5;entryDx=0;entryDy=0;exitX=0;exitY=0.5;exitDx=0;exitDy=0;" edge="1" parent="ythwBBCzMX73mBJ7t9Jo-1" source="ythwBBCzMX73mBJ7t9Jo-28">
          <mxGeometry x="-0.9699" y="10" relative="1" as="geometry">
            <mxPoint as="offset" />
            <mxPoint x="415.00000000000045" y="389" as="sourcePoint" />
            <mxPoint x="330" y="569" as="targetPoint" />
            <Array as="points">
              <mxPoint x="359" y="299" />
              <mxPoint x="359" y="569" />
            </Array>
          </mxGeometry>
        </mxCell>
        <mxCell id="ythwBBCzMX73mBJ7t9Jo-34" value="" style="edgeStyle=orthogonalEdgeStyle;rounded=0;html=1;labelBackgroundColor=none;startSize=5;endArrow=classicThin;endFill=1;endSize=5;jettySize=auto;orthogonalLoop=1;strokeWidth=1;fontFamily=Verdana;fontSize=8;entryX=1;entryY=0.5;entryDx=0;entryDy=0;exitX=0.5;exitY=1;exitDx=0;exitDy=0;" edge="1" parent="ythwBBCzMX73mBJ7t9Jo-1" source="ythwBBCzMX73mBJ7t9Jo-22" target="ythwBBCzMX73mBJ7t9Jo-12">
          <mxGeometry x="-0.9699" y="10" relative="1" as="geometry">
            <mxPoint as="offset" />
            <mxPoint x="490.00000000000045" y="747" as="sourcePoint" />
            <mxPoint x="405" y="927" as="targetPoint" />
            <Array as="points">
              <mxPoint x="465" y="569" />
              <mxPoint x="465" y="592" />
              <mxPoint x="359" y="592" />
              <mxPoint x="359" y="569" />
            </Array>
          </mxGeometry>
        </mxCell>
        <mxCell id="ythwBBCzMX73mBJ7t9Jo-35" style="edgeStyle=orthogonalEdgeStyle;rounded=0;html=1;labelBackgroundColor=none;startSize=5;endArrow=classicThin;endFill=1;endSize=5;jettySize=auto;orthogonalLoop=1;strokeWidth=1;fontFamily=Verdana;fontSize=8" edge="1" parent="ythwBBCzMX73mBJ7t9Jo-1" source="ythwBBCzMX73mBJ7t9Jo-36">
          <mxGeometry relative="1" as="geometry">
            <mxPoint x="260" y="19" as="targetPoint" />
          </mxGeometry>
        </mxCell>
        <mxCell id="ythwBBCzMX73mBJ7t9Jo-36" value="Power on&amp;nbsp;" style="rounded=0;whiteSpace=wrap;html=1;shadow=1;labelBackgroundColor=none;strokeWidth=1;fontFamily=Verdana;fontSize=8;align=center;" vertex="1" parent="ythwBBCzMX73mBJ7t9Jo-1">
          <mxGeometry x="190" y="-71" width="140" height="40" as="geometry" />
        </mxCell>
      </root>
    </mxGraphModel>
  </diagram>
</mxfile>
